<svg xmlns="http://www.w3.org/2000/svg" width="16" height="15" fill="none"><g clip-path="url(#a)"><mask id="b" width="16" height="16" x="0" y="0" maskUnits="userSpaceOnUse" style="mask-type:luminance"><path fill="#fff" d="M15.807.006h-15v15h15z"/></mask><g mask="url(#b)"><path fill="#231F20" d="M15.807 7.506c0-4.144-3.357-7.5-7.5-7.5a7.5 7.5 0 0 0-7.5 7.5A7.498 7.498 0 0 0 12 14.03a8 8 0 0 1-1.068-.9c-1.35-1.35-2.25-3.075-2.663-5.025h-.806l-.375 2.118c-.113.62.094.825.787.882l-.15.862a23 23 0 0 0-1.987-.094c-.638 0-1.275.038-1.913.094l.15-.862c.732-.057.882-.263.994-.882l1.106-6.3c-.543.132-.975.3-1.312.525.244.17.356.47.281.807-.094.525-.619.88-1.125.88-.3 0-.525-.093-.694-.262a1 1 0 0 1-.262-.656c0-1.537 2.569-2.719 5.944-2.719 1.575 0 2.643.32 3.243.92.375.374.582.88.582 1.462 0 1.275-.807 2.306-2.25 2.83.393 1.8 1.387 4.07 2.868 5.363a7.48 7.48 0 0 0 2.475-5.568m-7.668-.563c1.762 0 2.362-.956 2.362-2.006 0-.844-.487-1.275-1.744-1.275H8.27l-.581 3.244c.169 0 .337.018.487.018"/></g></g><defs><clipPath id="a"><path fill="#fff" d="M.807.006h15v15h-15z"/></clipPath></defs></svg>