<svg xmlns="http://www.w3.org/2000/svg" id="Layer_1" data-name="Layer 1" viewBox="0 0 1211.423 1210.199"><defs><style>.cls-1{fill:none}.cls-3{fill:#e60019}.cls-4{fill:#fff}.cls-3{stroke:#fff;stroke-miterlimit:10;stroke-width:24px}</style></defs><path id="Path_4676" d="M1205.56 639.592c-2.749 51.518-56.216 92.835-71.431 139.636-15.727 48.374 2.803 113.2-24.32 154.913-27.558 42.27-94.533 51.493-131.833 84.984s-53.427 99.142-98.368 122.084c-44.283 22.56-106.825-2.713-156.612 7.827-48.124 10.134-94.911 59.095-146.33 56.335-51.518-2.748-92.835-56.215-139.636-71.43-48.374-15.728-113.2 2.803-154.913-24.32-42.27-27.559-51.493-94.534-84.984-131.834S97.892 924.372 74.95 879.43c-22.56-44.282 2.714-106.825-7.826-156.612-10.234-48.112-59.095-94.91-56.335-146.33 2.76-51.418 56.215-92.834 71.43-139.635 15.727-48.375-2.803-113.2 24.32-154.914 27.558-42.27 94.534-51.492 131.834-84.983 37.3-33.49 53.526-99.155 98.467-122.097 44.258-22.758 106.701 2.528 156.488-8.013 48.124-10.134 94.924-58.996 146.33-56.335s92.835 56.216 139.636 71.43c48.474 15.716 113.3-2.815 154.913 24.32 42.27 27.559 51.493 94.534 84.984 131.834s99.154 53.526 122.097 98.467c22.559 44.283-2.615 106.813 7.826 156.612 10.345 48.2 59.194 94.9 56.446 146.417" data-name="Path 4676" style="fill:#e60019"/><circle cx="608.163" cy="607.953" r="497.949" class="cls-3"/><path id="Rectangle_4885" d="M-20.832 1173.04 42.345-21.793l1194.831 63.177-63.177 1194.831z" class="cls-1" data-name="Rectangle 4885"/><path id="Rectangle_4886" d="M-20.832 1173.04 42.345-21.793l1194.831 63.177-63.177 1194.831z" class="cls-1" data-name="Rectangle 4886"/><path id="Rectangle_4887" d="M-21.137 1173.304 42.039-21.527 1236.87 41.65l-63.176 1194.83z" class="cls-1" data-name="Rectangle 4887"/><path d="m191.808 737.865-5.292 1.05-6.076-30.644 41.827-32.18-1.133-5.71-31.479 6.241c-8.775 1.74-9.032 4.83-7.374 13.188l-5.293 1.05-9.418-47.499 5.294-1.048c1.38 6.963 2.686 9.167 11.46 7.426l74.66-14.803c8.915-1.767 9.143-4.272 7.761-11.237l5.294-1.05 8.202 41.37c4.694 23.679 2.04 46.065-18.994 50.235-10.725 2.126-21.327-2.43-28.969-13.22l-31.76 24.537c-8.783 6.808-9.455 8.534-8.71 12.294m80.168-77.564-43.598 8.644.828 4.178c3.094 15.601 12.03 17.593 22.615 15.494 15.183-3.01 23.745-10.208 20.928-24.416zM289.968 726.964l4.77-2.522 35.239 66.665-24.105 12.741-3.053-5.775c12.725-7.53 15.925-12.111 6.302-30.315l-3.915-7.408-35.654 18.847 2.455 4.645c5.64 10.671 9.363 9.507 16.843 6.035l2.987 5.65-28.248 14.93-2.986-5.648c6.83-4.094 10.391-6.779 4.75-17.45l-2.456-4.644-38.541 20.372 5.11 9.668c9.09 17.2 13.749 18.11 30.541 10.679l3.053 5.776-26.114 13.802-36.366-68.798 4.77-2.522c3.12 5.902 5.001 7.638 12.91 3.456l67.292-35.57c8.035-4.247 7.535-6.713 4.416-12.614ZM295.86 839.183c26.963-25.223 57.814-22.385 75.47-3.51 8.052 8.606 7.182 16.616 9.22 18.793 1.551 1.66 3.275 1.215 5.432-.22l4.075 4.355-24.993 23.38-4.463-4.77c12.21-16.674 11.933-29.442 3.978-37.946-6.402-6.845-17.77-9.434-40.17 11.52-20.431 19.112-31.517 38.234-18.324 52.338 7.47 7.985 17.442 7.212 29.375 1.883l3.03 5.527c-14.93 10.855-35.808 13.273-50.165-2.076-19.313-20.436-14.347-48.804 7.535-69.274M371.065 912.942c15.833-26.93 43.245-38.814 69.317-23.485 25.46 14.969 27.692 46.754 12.939 71.847-15.761 26.806-42.245 39.073-68.929 23.384-26.562-15.617-28.009-46.775-13.327-71.746m48.096 51.832c17.775-30.234 28.863-62.26 14.419-70.752-9.058-5.325-17.488-3.034-28.283 15.327-15.473 26.317-30.015 61.417-14.348 70.63 9.67 5.684 17.417 3.156 28.212-15.205M483.793 923.924l1.09-5.285 40.61 8.369 3.76 57.027 26.697-50.75 40.054 8.254-1.09 5.284c-6.535-1.347-9.072-1-10.878 7.762l-15.36 74.545c-1.807 8.761.386 10.083 6.922 11.43l-1.089 5.286-45.478-9.373 1.09-5.284c6.536 1.347 9.768 1.142 11.573-7.619l15.476-75.101-43.789 83.04-7.093-1.462-7.141-93.39-14.444 70.094c-2.609 12.656-1.034 14.865 8.144 16.757l-1.088 5.285-28.372-5.847 1.09-5.285c6.536 1.348 8.93 1.696 10.877-7.761l15.363-74.545c1.604-7.789-.445-9.805-6.924-11.43ZM610.928 946.88l-.938-5.314 40.832-7.203 24.535 51.616 6.09-57.019 40.272-7.106.938 5.315c-6.572 1.159-8.802 2.417-7.247 11.227l13.223 74.953c1.554 8.81 4.08 9.229 10.652 8.07l.938 5.312-45.727 8.068-.937-5.314c6.571-1.16 9.5-2.54 7.946-11.35l-13.322-75.513-10.064 93.336-7.132 1.259-41.091-84.166 12.433 70.477c2.246 12.725 4.524 14.197 13.753 12.57l.938 5.313-28.527 5.033-.937-5.313c6.572-1.16 8.924-1.72 7.247-11.228l-13.224-74.952c-1.382-7.832-4.03-8.95-10.651-8.07ZM736.647 919.314l-2.613-4.722 65.979-36.509 13.2 23.857-5.715 3.162c-7.772-12.579-12.415-15.69-30.432-5.72l-7.33 4.057 19.526 35.287 4.598-2.543c10.561-5.845 9.325-9.544 5.71-16.957l5.592-3.093 15.47 27.956-5.591 3.095c-4.223-6.752-6.976-10.26-17.538-4.417l-4.597 2.545 21.108 38.145 9.568-5.295c17.022-9.419 17.843-14.094 10.092-30.74l5.716-3.163 14.3 25.844-68.09 37.678-2.611-4.722c5.84-3.23 7.539-5.145 3.208-12.973l-36.854-66.6c-4.4-7.952-6.855-7.403-12.696-4.172ZM836.342 868.982l49.715 49.086c9.802 9.677 13.606 7.846 20.69.671l3.84 3.791-22.248 22.534-3.84-3.791c4.689-4.75 5.98-6.867.12-12.653l-54.87-54.174c-5.659-5.587-8.466-4.966-13.357-.416l-3.84-3.792 27.037-27.384 64.36 15.254-25.565-25.241c-9.902-9.777-12.508-8.958-19.192-2.187l-3.84-3.792 21.25-21.523 3.84 3.792c-5.188 5.253-6.379 7.47-.517 13.257l66.085 65.248-5.886 5.962zM883.717 796.16l19.274-38.468c14.313-28.567 40.17-38.96 67.974-25.029 28.185 14.123 43.531 40.237 26.483 74.262l-18.511 36.945-4.825-2.416c2.99-5.967 3.31-8.508-4.689-12.516l-68.051-34.096c-7.999-4.008-9.842-2.231-12.831 3.735zm85-33.65c-27.932-13.995-50.091-19.222-59.76.077l-2.1 4.189 81.763 40.967 2.736-5.459c7.314-14.6 2.118-27.37-22.64-39.775M999.18 679.443l-12.125 13.038c-8.332 8.984-17.823 14.137-30.802 11.702-18.56-3.483-26.365-20.406-23.17-37.432 2.436-12.978 8.594-17.313 9.17-20.384.288-1.534-.592-3-3.052-3.75l1.1-5.862 28.05 5.264-1.204 6.42c-16.285-1.756-24.816 6.756-26.807 17.362-1.597 8.513 2.144 13.983 9.54 15.371 7.676 1.44 12.892-2.493 19.052-9.138L980.7 659.36c10.338-11.207 20.545-17.093 35.756-14.239 17.026 3.195 28.45 20.075 24.181 42.822-2.985 15.91-9.632 18.997-10.234 22.206-.315 1.675.82 3.333 3.698 4.162l-1.1 5.861-32.936-6.18 1.205-6.42c16.739 2.42 29.108-4.217 31.78-18.452 2.094-11.164-3.95-18.222-12.603-19.846-8.233-1.545-14.008 2.284-21.267 10.168Z" class="cls-4"/><circle cx="605.234" cy="584.08" r="274.08" class="cls-3"/><path d="M376.303 678.2c21.479-1.79 25.806-7.862 29.05-25.825L437.6 468.823c-15.77 3.907-28.676 8.966-38.405 15.42 7.147 4.665 10.41 13.657 8.26 23.69-2.522 15.432-17.913 25.492-32.947 25.458-8.638.026-15.385-2.904-20.08-7.494-4.708-4.682-7.514-11.477-7.497-18.994.045-44.81 74.91-79.26 173.169-79.197 45.932.002 77.041 9.336 94.694 26.896 11.134 11.127 16.836 25.457 16.878 42.64.02 36.913-23.295 67.389-65.596 82.44 17.201 78.202 73.453 186.836 155.917 186.772 16.814.004 27.634-8.275 27.606-21.515-.043-6.476-3.619-10.359-7.511-12.23 2.136-8.621 12.523-15.062 30.47-15.009 10.431.036 20.402 3.979 27.244 10.748 5.353 5.355 8.586 12.567 8.554 21.494.02 31.558-30.099 49.437-83.167 49.465-57.762.04-107.214-23.294-145.553-61.705-39.4-39.409-65.57-89.645-77.824-146.661l-23.672-.008-10.746 61.716c-3.245 17.963 2.477 24.024 22.942 25.459L486 703.349c-18.684-1.465-37.6-2.526-58.08-2.55-18.596.027-37.251 1.094-55.953 2.543zm124.754-216.597-16.847 94.682c5.018.324 9.666.693 13.991.726 51.657-.043 68.801-27.977 68.825-58.413.01-24.424-13.965-37.269-50.889-37.342-4.972.046-10.049.012-15.08.347" class="cls-4"/><path d="M624.373 684.31c1.755-23.98 2.487-55.537 2.159-78.886l27.615-.005c2.123 21.907 9.714 40.138 20.432 50.94 11.457 11.463 24.05 16.87 41.233 16.828 23.672.008 39.77-15.775 39.806-36.162-.024-14.744-7.512-22.185-22.266-32.962l-37.254-27.273c-7.562-5.742-14.649-11.447-20.476-16.838-14.723-14.35-21.5-29.018-21.462-50.908.031-48.754 40.176-81.388 97.198-81.338 37.664-.018 46.236 8.606 81.047 7.53-5.037 17.9-11.828 49.073-15.425 69.522l-27.996-.041 1.043-6.046c2.165-11.444-.713-21.892-7.555-28.662-6.426-6.444-17.196-10.007-30.448-10.072-25.834-.025-41.565 11.861-41.588 31.59.026 13.992 7.51 22.937 22.542 33.68l37.255 27.272c7.838 5.708 14.37 11.482 20.428 17.22 16.49 15.73 24.015 31.903 24.038 52.001-.048 50.916-40.866 84.948-100.04 84.974-48.302-.18-66.566-23.49-90.286-22.364Z" class="cls-4"/></svg>