<svg xmlns="http://www.w3.org/2000/svg" id="Layer_2" data-name="Layer 2" viewBox="0 0 391.214 78.597"><defs><style>.cls-1{fill:#fff}</style></defs><g id="Layer_2-2" data-name="Layer 2"><path d="m30.98 78.597-.233-.225a3 3 0 0 1-.407-.386 3 3 0 0 1-.412-.39 3 3 0 0 1-.41-.388 3 3 0 0 1-.408-.387 3 3 0 0 1-.41-.39 3 3 0 0 1-.412-.391 3 3 0 0 1-.401-.381 3 3 0 0 1-.413-.39 3 3 0 0 1-.411-.39 3 3 0 0 1-.409-.387 3 3 0 0 1-.409-.388 3 3 0 0 1-.41-.39 3 3 0 0 1-.41-.387 3 3 0 0 1-.406-.387 3 3 0 0 1-.411-.389 3 3 0 0 1-.41-.388 3 3 0 0 1-.407-.386 3 3 0 0 1-.413-.392 3 3 0 0 1-.407-.385 3 3 0 0 1-.41-.39 3 3 0 0 1-.409-.387 3 3 0 0 1-.409-.387 3 3 0 0 1-.41-.389 3 3 0 0 1-.408-.388 3 3 0 0 1-.411-.39 3 3 0 0 1-.41-.387 3 3 0 0 1-.408-.387 3 3 0 0 1-.41-.39 3 3 0 0 1-.41-.387 3 3 0 0 1-.406-.387 3 3 0 0 1-.412-.39 3 3 0 0 1-.408-.386 3 3 0 0 1-.409-.389 3 3 0 0 1-.41-.388 3 3 0 0 1-.41-.387 3 3 0 0 1-.41-.39 3 3 0 0 1-.407-.386 3 3 0 0 1-.41-.388 3 3 0 0 1-.41-.39 3 3 0 0 1-.407-.385 3 3 0 0 1-.412-.391 3 3 0 0 1-.41-.388 3 3 0 0 1-.408-.386 3 3 0 0 1-.41-.39 3 3 0 0 1-.409-.388 3 3 0 0 1-.407-.385 3 3 0 0 1-.412-.391 3 3 0 0 1-.407-.387 3 3 0 0 1-.41-.388 3 3 0 0 1-.41-.39 3 3 0 0 1-.41-.386 3 3 0 0 1-.41-.39 3 3 0 0 1-.406-.385 3 3 0 0 1-.411-.39 3 3 0 0 1-.402-.38c-.781-.6-1.235-1.521-1.235-2.55v-4.453c0-1.694 1.296-3.039 2.993-3.159V28.938a3 3 0 0 1-.178-.187 3 3 0 0 1-.408-.387 3 3 0 0 1-.41-.388 3 3 0 0 1-.41-.39 3 3 0 0 1-.41-.387 3 3 0 0 1-.409-.388 3 3 0 0 1-.408-.388 3 3 0 0 1-.41-.388 3 3 0 0 1-.408-.387 3 3 0 0 1-.411-.39 3 3 0 0 1-.41-.387 3 3 0 0 1-.409-.389 3 3 0 0 1-.408-.388 3 3 0 0 1-.41-.388 3 3 0 0 1-.408-.387 3 3 0 0 1-.41-.388 3 3 0 0 1-.409-.388 3 3 0 0 1-.41-.388 3 3 0 0 1-.41-.389 3 3 0 0 1-.41-.389 3 3 0 0 1-.408-.387 3 3 0 0 1-.402-.38C.454 20.01 0 19.088 0 18.06V.73l37.432.024q.2-.023.41-.024h16.133c.578 0 1.13.15 1.61.424A3.4 3.4 0 0 1 57.26.73h16.131c.63 0 1.229.178 1.736.5a3.3 3.3 0 0 1 1.77-.5h29.592v.389h.41v.388h.408v.388h.41v.388h.409v.388h.41v.388h.41v.388h.408v.389h.41v.387h.409v.388h.409V5h.41v.387h.41v.389h.408v.388h.41v.388h.344V3.898c0-1.776 1.423-3.168 3.24-3.168h16.79c.943 0 1.817.399 2.42 1.086q.225.175.412.39.222.175.41.388.222.175.41.388.22.174.407.388.224.175.41.388.222.174.409.387.22.175.41.388.221.175.41.39.223.174.41.388.221.175.408.387.222.175.409.388.222.176.41.389.22.174.408.387.221.173.41.387.222.176.411.391.22.173.407.385.223.176.41.39.222.175.409.388.222.175.41.388.222.175.408.388.224.175.41.388.222.174.409.387.222.175.409.388.222.176.411.39.222.175.41.388.22.175.407.387.224.175.41.389.222.175.41.388.221.175.408.387.221.175.41.388.222.176.41.39.22.173.408.385.223.176.41.39.222.175.409.388.222.175.41.388.222.175.408.388.136.106.26.228L152.501.73h17.647l.06.389h.349l.06.388h.349l.06.388h.35l.06.388h.344l.062.388h.347l.062.388h.352l.061.388h.349l.06.388h.349l.06.388h.349l.06.388h.349l.06.389h.345l.062.387h.347l.062.388h.352l.06.389h.35l.06.388h.348l.061.388h.349l.06.388h.349l.06.388h.22V.73l37.432.023q.201-.023.41-.023h29.594v.388h.41v.388h.409v.388h.41v.388h.408v.388h.41v.388h.41v.282C249.64 1.168 252.637 0 255.962 0c2.39 0 4.385.502 5.957 1.498V.73h47.434v.389h.41v.388h.408v.388h.41v.388h.409v.388h.41v.388h.41v.388h.408v.389h.41v.387h.409v.388h.409V5h.41v.387h.41v.389h.407v.388h.41v.388h.41v.388h.41v.388h.408v.388h.41v.388h.409v.389h.409v.387h.41v.388h.41v.389h.408v.388h.41v.387h.409v.389h.41v.388h.408v.388h.41v.388h.409v.388h.41v.388h.41v.388h.408v.389h.41v.387h.409v.388h.41v.389h.408v.388h.41v.388h.41v.388h.409v.388h.409v.388h.41v.388h.408v.388h.41v.388h.41v.388h.408v.388h.41v.388h.41v.389H329v.388h.41v.388h.409v.388h.41v.388h.408v.388h.41v.388h.41v.389h.409v.387h.41v.388h.408v.389h.41v.387h.409v.389h.41v.388h.408v.387h.41v.39h.41v.387h.409v.388h.409v.388h.41v.388h.41v.389h.407v.387h.41v.388h.41v.389h.41v.387h.408v.39h.41v.387h.409v.387h.409v.39h.41v.387h.41v.389h.408v.387h.41v.388h.409v.389h.41v.387h.408v.388h.41v.389h.409v.387h.41v.39h.41v.387h.408v.388h.41v.388h.409v.388h.409v.389h.41v.387h.41v.388h.408v.389h.41v.388h.409v.387h.41v.389h.408v.388h.41v.388h.41v.388h.408v.388h.41v.388h.41v.388h.408v.389h.41v.388h.409v.387h.41v.389h.408v.388h.41v.387h.41v.389h.409v.388h.41v.388h.408v.388h.41v.388h.409v.389h.41v.387h.408v.389h.41v.388h.41v.387h.409v.389h.409v.388h.41v.387h.41v.39h.407v.387h.41v.389h.41v.387h.41v.388h.408v.389h.41v.387h.409v.388h.409v.389h.41v.387h.41v.39h.408v.387h.41v.388h.409v.388h.41v.388h.408v.388h.41v.388h.409v.388h.41v.389h.41v.387h.408v.388h.41v.389h.409v.388h.409v.388h.41v.388h.41v.388h.408v.388h.41v.388h.409v.388h.41v.388h.408v.388h.41v.389h.41v.388h.408v.387h.41v.389h.41v.388h.408v.388h.41v.388h.409v.388h.41v.388h.408v.388h.41v.388h.41v.389h.409v.387h.41v.389h.408v.388h.41v.387h.409v.389h.41v.388h.408v.388h.41v.388h.41v.388h.409v.389h.409v.387h.41v.388h.41v.389h.407v.387h.41v.389h.41v.388h.41v.387h.408v.39h.41v.387h.409v.389h.409v.387h.41v.388h.41v.389h.408v.387h.41v.388h.409v.389h.41v.387h.408v.39h.41v.387h.409v.388h.41v.388h.41v.388h.408v.389h.41v.387h.409v.388h.409v.252H30.979ZM54.135 5.134q.015.025.033.048z"/><path d="M9.008 54.486v-4.452c0-.658.51-1.168 1.241-1.168h1.752V9.592h-1.898c-.73 0-1.242.511-1.242 1.242v7.226c0 .73-.51 1.241-1.24 1.241h-4.38c-.73 0-1.241-.511-1.241-1.24V2.73h33.433v15.33c0 .729-.511 1.24-1.24 1.24h-4.38c-.731 0-1.242-.511-1.242-1.24v-7.228c0-.73-.365-1.24-1.24-1.24h-1.898v39.273h1.678c.73 0 1.241.51 1.241 1.24v4.38c0 .73-.511 1.241-1.24 1.241H10.248c-.73 0-1.241-.51-1.241-1.241M36.602 54.486v-4.452c0-.658.511-1.168 1.24-1.168h1.534V9.592h-1.533c-.73 0-1.241-.51-1.241-1.24V3.898c0-.657.511-1.168 1.24-1.168h16.134c.73 0 1.24.51 1.24 1.24v4.38c0 .73-.51 1.241-1.24 1.241h-1.242V26.09h5.695V9.592h-1.242c-.73 0-1.167-.51-1.167-1.24v-4.38c0-.73.437-1.241 1.24-1.241h16.133c.73 0 1.24.51 1.24 1.24v4.38c0 .73-.51 1.241-1.24 1.241H71.86v39.274h1.532c.731 0 1.242.51 1.242 1.24v4.38c0 .73-.511 1.241-1.241 1.241H57.186c-.73 0-1.168-.51-1.168-1.241v-4.38c0-.73.438-1.24 1.242-1.24h1.168V31.637h-5.695v17.229h1.241c.73 0 1.242.51 1.242 1.24v4.38c0 .73-.512 1.241-1.242 1.241H37.843c-.73 0-1.242-.51-1.242-1.241ZM75.656 54.486v-4.452c0-.658.51-1.168 1.241-1.168h1.533V9.592h-1.533c-.73 0-1.24-.51-1.24-1.24V3.898c0-.657.51-1.168 1.24-1.168h27.593v14.016c0 .729-.51 1.24-1.241 1.24h-4.38c-.73 0-1.24-.511-1.24-1.24v-5.914c0-.73-.512-1.24-1.241-1.24h-4.599v14.38h4.817c.731 0 1.242.51 1.242 1.24v4.819c0 .73-.511 1.24-1.242 1.24H91.79v17.594h4.599c.73 0 1.24-.512 1.24-1.241v-7.3c0-.73.512-1.241 1.169-1.241h4.672c.73 0 1.24.51 1.24 1.24v15.403H76.897c-.73 0-1.24-.51-1.24-1.241M115.806 48.866h1.532V9.592h-1.532c-.73 0-1.241-.51-1.241-1.24V3.898c0-.657.51-1.168 1.24-1.168h16.79c.73 0 1.241.51 1.241 1.24v4.38c0 .73-.51 1.241-1.241 1.241h-1.898v39.274h3.796c.73 0 1.24-.512 1.24-1.242v-7.3c0-.73.512-1.24 1.242-1.24h4.598c.73 0 1.241.51 1.241 1.24v15.403h-27.008c-.73 0-1.242-.51-1.242-1.241v-4.452c0-.657.511-1.168 1.242-1.168ZM143.91 54.486v-4.452c0-.658.51-1.168 1.24-1.168h1.534l7.518-46.135h14.235l7.226 46.135h1.388c.73 0 1.24.51 1.24 1.24v4.38c0 .73-.51 1.241-1.24 1.241H159.02c-.73 0-1.24-.51-1.24-1.241v-4.38c0-.73.51-1.24 1.24-1.24h2.847l-1.095-8.833h-6.278l-1.24 8.833h2.408c.73 0 1.242.51 1.242 1.24v4.38c0 .73-.512 1.241-1.242 1.241h-10.511c-.73 0-1.242-.51-1.242-1.241Zm16.278-19.125-2.19-17.155h-.292l-2.482 17.155zM186.395 54.486v-4.452c0-.658.51-1.168 1.24-1.168h1.753V9.592h-1.899c-.73 0-1.24.511-1.24 1.242v7.226c0 .73-.512 1.241-1.241 1.241h-4.38c-.73 0-1.241-.511-1.241-1.24V2.73h33.432v15.33c0 .729-.51 1.24-1.24 1.24h-4.38c-.73 0-1.24-.511-1.24-1.24v-7.228c0-.73-.366-1.24-1.242-1.24h-1.898v39.273h1.68c.729 0 1.24.51 1.24 1.24v4.38c0 .73-.511 1.241-1.24 1.241h-16.863c-.73 0-1.241-.51-1.241-1.241ZM213.988 54.486v-4.452c0-.658.512-1.168 1.242-1.168h1.533V9.592h-1.534c-.729 0-1.24-.51-1.24-1.24V3.898c0-.657.511-1.168 1.24-1.168h27.594v14.016c0 .729-.511 1.24-1.24 1.24h-4.38c-.731 0-1.242-.511-1.242-1.24v-5.914c0-.73-.51-1.24-1.241-1.24h-4.599v14.38h4.819c.73 0 1.24.51 1.24 1.24v4.819c0 .73-.51 1.24-1.24 1.24h-4.819v17.594h4.599c.73 0 1.241-.512 1.241-1.241v-7.3c0-.73.51-1.241 1.168-1.241h4.672c.73 0 1.241.51 1.241 1.24v15.403H215.23c-.73 0-1.242-.51-1.242-1.241ZM244.794 55.727V40.325c0-.73.51-1.241 1.168-1.241h4.672c.73 0 1.168.51 1.241 1.24.803 6.643 3.065 9.126 5.913 9.126 2.555 0 4.233-2.045 4.233-4.6 0-7.664-17.738-11.972-17.738-28.834 0-8.322 4.964-14.015 11.68-14.015 4.745 0 7.008 2.19 7.737 5.62h.22v-4.89h6.861v15.33c0 .729-.51 1.24-1.241 1.24h-4.452c-.73 0-1.168-.511-1.241-1.24-.584-6.425-2.044-9.053-5.256-9.053-2.628 0-3.65 1.971-3.65 4.307 0 8.176 18.03 11.388 18.03 29.127 0 8.248-4.526 14.015-12.336 14.015-5.33 0-7.884-2.482-8.687-6.06h-.22v5.33zM280.928 54.486v-4.452c0-.658.511-1.168 1.24-1.168h1.753V9.592h-1.898c-.73 0-1.24.511-1.24 1.242v7.226c0 .73-.511 1.241-1.242 1.241h-4.38c-.73 0-1.241-.511-1.241-1.24V2.73h33.434v15.33c0 .729-.511 1.24-1.242 1.24h-4.38c-.73 0-1.24-.511-1.24-1.24v-7.228c0-.73-.365-1.24-1.241-1.24h-1.898v39.273h1.678c.73 0 1.242.51 1.242 1.24v4.38c0 .73-.511 1.241-1.242 1.241H282.17c-.73 0-1.241-.51-1.241-1.241Z" class="cls-1"/></g></svg>