<svg xmlns="http://www.w3.org/2000/svg" width="139" height="117" fill="none"><g clip-path="url(#a)"><path fill="#000" d="M138.75 68.58v-.366h-.369v-.365h-.369v-.365h-.369v-.366h-.368v-.365h-.369v-.365h-.369v-.366h-.369v-.365h-.368v-.365h-.369v-.365h-.369v-.365h-.369v-.366h-.368v-.365h-.369v-.365h-.369V63.1h-.369v-.365h-.368v-.366h-.369v-.365h-.369v-.365h-.369v-.365h-.368v-.366h-.369v-.365h-.369v-.365h-.369v-.365h-.368v-.365h-.369v-.366h-.369v-.365h-.369v-.365h-.368v-.366h-.369v-.365h-.369v-.365h-.369v-.365h-.368v-.365h-.369v-.366h-.369v-.365h-.369v-.365h-.368v-.365h-.369V54.7h-.369v-.365h-.368v-.365H124v-.365h-.369v-.365h-.369v-.366h-.368v-.365h-.369v-.365h-.369v-.365h-.369v-.366h-.368v-.365h-9.115v.63c-1.201-.756-2.821-1.242-4.999-1.242-2.771 0-5.217.99-7.137 2.696v-.258h-.37v-.365h-.368v-.365h-.369v-.365h-.368v-.366h-.37v-.365H58.518v.63c-1.201-.756-2.82-1.242-4.999-1.242-3.071 0-5.745 1.215-7.743 3.277a3 3 0 0 0-.26-.233 2.6 2.6 0 0 0-.369-.365 2.6 2.6 0 0 0-.368-.366 2.6 2.6 0 0 0-.37-.365 2.6 2.6 0 0 0-.368-.365 2.68 2.68 0 0 0-2.1-.97H28.157c-1.525 0-2.72 1.166-2.72 2.655v3.732c0 .107.016.208.027.31a3 3 0 0 0-.274-.25 2.6 2.6 0 0 0-.369-.364 2.6 2.6 0 0 0-.369-.366 2.6 2.6 0 0 0-.369-.365 2.6 2.6 0 0 0-.368-.365 2.6 2.6 0 0 0-.37-.365 2.6 2.6 0 0 0-.368-.365 2.6 2.6 0 0 0-.369-.366 2.6 2.6 0 0 0-.368-.365 2.6 2.6 0 0 0-.369-.365 2.6 2.6 0 0 0-.369-.365 2.6 2.6 0 0 0-.368-.365 2.6 2.6 0 0 0-.37-.366 2.6 2.6 0 0 0-.368-.365 2.6 2.6 0 0 0-.369-.365 2.6 2.6 0 0 0-.368-.365 2.68 2.68 0 0 0-2.1-.97H3.47c-1.525 0-2.72 1.166-2.72 2.655v3.732c0 .884.38 1.644.996 2.133q.165.201.368.365.166.201.37.366.165.201.368.365c.07.083.147.156.226.229v28.857C1.745 89.93.75 91.02.75 92.38v3.732c0 .877.383 1.622.99 2.112q.165.201.368.365.165.201.369.365.165.202.368.366.166.2.37.365.164.2.368.365.165.201.369.365.165.201.368.365.167.202.369.366.165.2.369.365.165.201.369.365.165.201.368.365.166.202.37.366.165.2.368.365.165.2.368.365.166.201.37.365.165.201.368.365.165.202.369.366.165.2.368.365.166.201.37.365.165.201.368.365.165.201.369.365.165.202.368.366.166.2.37.365.164.201.368.365.165.201.369.365.165.202.368.366.166.2.37.365.164.201.368.365.165.201.369.365.165.202.369.365.165.202.368.366.165.2.369.365.165.201.369.365.165.201.368.365.166.202.37.365.164.202.368.366.165.201.369.365.165.201.368.365.166.201.37.366.165.2.368.365.165.2.369.365.165.201.368.365.166.201.37.365.164.202.368.365.165.202.369.366.165.201.368.365.166.201.369.365.165.201.369.365.165.202.368.366.166.2.37.365l.302.265H138.68z"/><path fill="#000" d="M138.75 19.052v-.374h-.366v-.373h-.365v-.374h-.366v-.373h-.366v-.374h-.365v-.373h-.366v-.374h-.365v-.373h-.366v-.374h-.365v-.373h-.366v-.374h-.366v-.374h-.365v-.373h-.366v-.374h-.365v-.373h-.366v-.374h-.365v-.373h-.366v-.374h-.366v-.373h-.365v-.374h-.366v-.373h-.365v-.374h-.366v-.373h-.366v-.374h-.365v-.374h-.366V9.34h-.365v-.374h-.366v-.373h-.365v-.374h-.366v-.373h-.366v-.374h-.365V7.1h-.366v-.374h-.365v-.373h-.366v-.374h-.366v-.373h-.365V5.23h-.366v-.373h-.365v-.374h-.366V4.11h-.366v-.373h-.365v-.374h-.366V2.99h-.365v-.374h-.366v-.373h-.366v-.374h-.365v-.373h-.366v-.372h-.365V.75H96.367a2.69 2.69 0 0 0-2.389 1.394l-.02-.017a2.6 2.6 0 0 0-.366-.374A2.68 2.68 0 0 0 91.466.75H77.928c-.518 0-.99.124-1.39.345A2.8 2.8 0 0 0 75.172.75H61.632c-.62 0-1.178.2-1.631.529v-.155h-.366V.75H28.222v14.527c0 .862.37 1.597.959 2.087q.163.206.365.374.164.205.366.373.164.205.365.374.165.205.366.373.164.206.366.374.163.205.365.373.164.207.366.374.164.205.365.373.165.206.366.374.164.205.366.373.163.206.365.374.164.205.366.373.164.206.365.374.164.205.366.373.164.206.365.374.165.205.366.374.164.205.366.373.164.205.365.373.164.206.366.374.164.205.365.373.059.077.122.15v14.449c-1.424.1-2.511 1.228-2.511 2.648v3.733c0 .862.37 1.596.959 2.087q.163.205.365.373.164.205.366.374.164.205.365.373.164.205.366.374.164.205.366.373.163.205.365.374.164.205.366.373.164.205.365.374.164.205.366.373.163.206.366.374.163.205.365.373.164.206.366.374.164.205.365.373.164.206.366.374.164.205.365.373.164.206.366.374.164.205.366.373.164.207.365.374.164.205.366.373.164.206.365.374.165.205.366.373.164.206.366.374.163.205.365.374.164.205.366.373.163.205.366.373.163.207.365.374.164.205.366.374.163.205.365.373.164.206.366.374.164.205.365.373.164.205.366.374.164.205.366.373.163.205.365.374.164.205.366.373.163.206.366.374.163.205.365.373.163.205.366.374.163.205.365.373.164.205.366.374.164.205.365.373.164.206.366.374.164.205.365.373.165.206.366.374.164.205.366.373.164.207.365.374.164.205.366.373.163.207.366.374.163.205.365.373.164.207.366.374.164.205.365.373.164.207.366.374.164.205.366.374.163.205.365.373.164.205.366.373.163.207.365.374.164.205.366.373.163.207.366.374.163.205.365.373.164.207.366.374.163.205.365.374.164.205.366.373.164.205.365.374.164.205.366.373.164.205.366.374.163.205.365.373.164.205.366.374.164.205.365.373.164.205.366.374.164.205.366.373.164.205.365.374.164.205.366.373.163.207.366.374.163.205.365.373.164.206.366.374.163.205.365.373.164.206.366.374.163.205.366.374.163.204.365.373.164.205.366.374.163.205.365.373.164.205.366.374.164.204.365.373.164.205.366.374.164.205.366.373.163.205.365.374.164.205.366.373.164.205.365.374.164.205.366.373.164.206.366.374.163.204.365.373.164.205.366.374.164.205.365.373.164.205.366.374.164.205.366.373.163.207.365.374.164.205.366.373.164.206.365.374.164.205.366.373.164.206.365.374.165.205.366.373a2.68 2.68 0 0 0 2.127 1.004h14.15c1.55 0 2.72-1.168 2.72-2.717v-3.672c0-.216-.03-.422-.073-.62l.038.03q.163.204.365.373.164.206.366.374.164.205.365.373.164.205.366.374.164.205.366.373.163.205.365.374.164.205.366.373.164.205.365.374.164.205.366.373.164.205.366.374.163.205.365.373.164.206.366.374.164.205.365.373.164.206.366.374.163.205.366.373.163.206.365.374a2.68 2.68 0 0 0 2.126 1.003h13.538c.504 0 .967-.123 1.363-.343.388.22.84.343 1.333.343h13.6c1.061 0 1.933-.555 2.384-1.397l.025.02q.163.206.366.374a2.68 2.68 0 0 0 2.125 1.003h5.459V19.052z"/><path fill="#fff" d="M35.781 45.323v-3.697c0-.546.429-.97 1.042-.97h1.47V8.042H36.7c-.612 0-1.042.424-1.042 1.03v6.002c0 .607-.428 1.03-1.04 1.03h-3.676c-.613 0-1.042-.423-1.042-1.03V2.344h28.057v12.73c0 .607-.429 1.03-1.041 1.03H53.24c-.613 0-1.041-.423-1.041-1.03V9.073c0-.607-.307-1.03-1.042-1.03h-1.592v32.613h1.408c.614 0 1.042.424 1.042 1.03v3.637c0 .606-.428 1.031-1.042 1.031h-14.15c-.613 0-1.042-.425-1.042-1.03M60.59 45.323v-3.697c0-.546.43-.97 1.042-.97h1.287V8.042h-1.286c-.613 0-1.042-.424-1.042-1.03V3.314c0-.546.43-.97 1.041-.97h13.539c.612 0 1.041.424 1.041 1.03v3.638c0 .606-.429 1.03-1.041 1.03h-1.042v13.7h4.779v-13.7h-1.042c-.613 0-.98-.424-.98-1.03V3.375c0-.606.367-1.031 1.042-1.031h13.537c.613 0 1.042.424 1.042 1.03v3.638c0 .606-.429 1.03-1.042 1.03H90.18v32.614h1.285c.613 0 1.042.424 1.042 1.03v3.637c0 .606-.429 1.031-1.042 1.031H77.866c-.613 0-.98-.424-.98-1.03v-3.638c0-.606.367-1.03 1.042-1.03h.98V26.349h-4.779v14.307h1.042c.612 0 1.041.424 1.041 1.03v3.637c0 .606-.429 1.031-1.041 1.031H61.632c-.612 0-1.041-.425-1.041-1.03M95.325 45.323v-3.697c0-.546.43-.97 1.042-.97h1.286V8.042h-1.286c-.612 0-1.042-.424-1.042-1.03V3.314c0-.546.43-.97 1.042-.97h23.156v11.639c0 .606-.428 1.03-1.041 1.03h-3.676c-.612 0-1.042-.424-1.042-1.03v-4.91c0-.607-.428-1.03-1.04-1.03h-3.86v11.941h4.043c.612 0 1.041.425 1.041 1.031v4c0 .607-.429 1.032-1.041 1.032h-4.043v14.609h3.86c.612 0 1.04-.424 1.04-1.03v-6.063c0-.606.43-1.03.981-1.03h3.92c.613 0 1.042.424 1.042 1.03v12.791h-23.34c-.612 0-1.042-.425-1.042-1.03M3.432 91.402H4.72V58.478H3.432c-.612 0-1.04-.428-1.04-1.04v-3.733c0-.551.428-.98 1.04-.98h14.09c.613 0 1.042.429 1.042 1.04v3.672c0 .613-.43 1.04-1.042 1.04H15.93v32.925h3.186c.613 0 1.041-.43 1.041-1.04v-6.12c0-.613.429-1.04 1.042-1.04h3.859c.612 0 1.042.427 1.042 1.04v12.912H3.432c-.612 0-1.04-.428-1.04-1.04V92.38c0-.551.428-.98 1.04-.98M27.08 96.113v-3.732c0-.551.428-.98 1.04-.98h1.287V58.479H28.12c-.612 0-1.04-.428-1.04-1.04v-3.733c0-.551.428-.98 1.04-.98h13.783c.613 0 1.042.429 1.042 1.04v3.672c0 .613-.43 1.04-1.042 1.04h-1.286v32.925h1.286c.613 0 1.042.428 1.042 1.04v3.671c0 .613-.43 1.04-1.042 1.04H28.12c-.612 0-1.04-.427-1.04-1.04M44.108 97.154V84.242c0-.613.43-1.04.98-1.04h3.921c.613 0 .98.427 1.042 1.04.673 5.568 2.572 7.65 4.962 7.65 2.144 0 3.552-1.715 3.552-3.857C58.565 81.61 43.68 78 43.68 63.863c0-6.977 4.165-11.75 9.801-11.75 3.982 0 5.881 1.836 6.493 4.713h.184v-4.1h5.758v12.85c0 .612-.428 1.041-1.041 1.041h-3.736c-.613 0-.98-.429-1.042-1.04-.49-5.386-1.715-7.589-4.41-7.589-2.206 0-3.064 1.652-3.064 3.61 0 6.854 15.132 9.547 15.132 24.418 0 6.915-3.799 11.75-10.353 11.75-4.473 0-6.616-2.081-7.29-5.08h-.184v4.468zM74.433 96.113v-3.732c0-.551.428-.98 1.041-.98h1.47V58.479h-1.593c-.612 0-1.041.428-1.041 1.04v6.058c0 .612-.429 1.041-1.041 1.041h-3.676c-.613 0-1.041-.429-1.041-1.04V52.726h28.057v12.85c0 .612-.43 1.041-1.042 1.041h-3.675c-.613 0-1.042-.429-1.042-1.04v-6.059c0-.612-.306-1.04-1.042-1.04h-1.592v32.924h1.409c.613 0 1.041.428 1.041 1.04v3.671c0 .613-.428 1.04-1.041 1.04h-14.15c-.614 0-1.042-.427-1.042-1.04M97.894 97.154V84.242c0-.613.43-1.04.98-1.04h3.921c.613 0 .98.427 1.042 1.04.673 5.568 2.572 7.65 4.962 7.65 2.144 0 3.553-1.715 3.553-3.857 0-6.425-14.886-10.036-14.886-24.172 0-6.977 4.165-11.75 9.801-11.75 3.982 0 5.881 1.836 6.493 4.713h.185v-4.1h5.758v12.85c0 .612-.429 1.041-1.042 1.041h-3.736c-.613 0-.98-.429-1.042-1.04-.49-5.386-1.715-7.589-4.41-7.589-2.206 0-3.064 1.652-3.064 3.61 0 6.854 15.132 9.547 15.132 24.418 0 6.915-3.799 11.75-10.353 11.75-4.472 0-6.616-2.081-7.29-5.08h-.183v4.468z"/></g><defs><clipPath id="a"><path fill="#fff" d="M.75.75h138v116H.75z"/></clipPath></defs></svg>