<svg xmlns="http://www.w3.org/2000/svg" xml:space="preserve" id="Layer_1" x="0" y="0" version="1.1" viewBox="0 0 500 500"><style>.st-1{fill:#fff}</style><g id="playbutton" transform="translate(-39.215 -1005.404)"><g id="Group_6924" transform="translate(63.5 1154.742)"><path id="Path_4727" d="M225.5 343.2c133.9 0 242.4-108.5 242.4-242.4S359.4-141.6 225.5-141.6-16.9-33.1-16.9 100.8 91.6 343.2 225.5 343.2" style="fill:#d71920"/></g><g id="Group_6456" transform="translate(57.811 1131.662)"><path id="Path_4730" d="M180.8 242.7c-5.5 0-10-4.4-10-9.9 0-3.3 1.6-6.4 4.3-8.3l141.5-99.3-132.2-98.7v109.4c0 5.5-4.5 10-10 10s-10-4.5-10-10V6.5c0-3.8 2.1-7.2 5.5-8.9s7.4-1.3 10.5.9l159.1 118.9c2.6 1.9 4 4.9 4 8.1-.1 3.2-1.6 6.2-4.2 8L186.5 240.9c-1.6 1.2-3.6 1.8-5.7 1.8" class="st-1"/><path id="Path_4730_-_Outline" d="M180.8 246.4c-7.6 0-13.7-6.1-13.7-13.7 0-4.5 2.2-8.7 5.8-11.2l137.3-96.4-122-91.2v102c0 7.6-6.1 13.7-13.7 13.7s-13.7-6.1-13.7-13.7V6.5c0-5.2 2.9-10 7.6-12.3 1.9-1 4-1.5 6.1-1.5 3 0 5.8 1 8.2 2.7l159.1 118.9c3.5 2.6 5.6 6.8 5.5 11.2s-2.3 8.5-5.8 11L188.7 243.9c-2.3 1.7-5.1 2.5-7.9 2.5M180.7 19 323 125.3 177.2 227.6c-2.8 2-3.5 5.9-1.5 8.7 1.2 1.7 3.1 2.7 5.1 2.7 1.3 0 2.5-.4 3.6-1.1l152.7-107.2c1.6-1.1 2.6-3 2.7-5 0-2-.9-3.9-2.5-5.1L178.2 1.5c-1.1-.8-2.4-1.2-3.7-1.2-1 0-1.9.2-2.8.7-2.1 1.1-3.5 3.2-3.4 5.6V136c0 3.4 2.8 6.2 6.2 6.2s6.2-2.8 6.2-6.2z" class="st-1"/></g></g></svg>